<svg width="1885" height="796" viewBox="0 0 1885 796" xmlns="http://www.w3.org/2000/svg"><g fill="none" fill-rule="evenodd"><path fill="#E4F3F6" d="M7 80.533l67.593-38.767L7 3z"/><path fill="#EBF2F6" d="M1483.593 3v77.533L1416 41.768z"/><path fill="#CEE6ED" d="M1483 80.533V3l67.593 38.766z"/><path fill="#53BECC" d="M1350.593 3v77.533L1283 41.768z"/><path fill="#ADD9E2" d="M1350 80.533V3l67.593 38.766z"/><path fill="#85CBC9" d="M1215.593 3v77.533L1148 41.768z"/><path fill="#C4E2E5" d="M1216 80.533V3l67.593 38.766z"/><path fill="#DBEDE8" d="M1080.593 3v77.533L1013 41.768z"/><path fill="#A7D8E4" d="M1080 80.533V3l67.593 38.766z"/><path fill="#00A997" d="M947.593 3v77.533L880 41.768z"/><path fill="#A7D8E4" d="M946 80.533V3l67.593 38.767z"/><path fill="#C6E3E5" d="M813.593 3v77.533L746 41.768z"/><path fill="#28B8CC" d="M813 80.533V3l67.593 38.766z"/><path fill="#B1DBDF" d="M679.593 3v77.533L612 41.768z"/><path fill="#DEEFEA" d="M746.593 41.767L679 80.533V3z"/><path fill="#A0D5E0" d="M545.593 3v77.533L478 41.768z"/><path fill="#5FBFBE" d="M545 80.533V3l67.593 38.766z"/><path fill="#F3F7F9" d="M411.593 3v77.533L344 41.768z"/><path fill="#F8FBFC" d="M411 80.533V3l67.593 38.766z"/><path fill="#EFF5E2" d="M277.593 3v77.533L210 41.768z"/><path fill="#EAF4E6" d="M277 80.533V3l67.593 38.766z"/><path fill="#EBF5EE" d="M142.593 3v77.533L75 41.768z"/><path fill="#E6F1E1" d="M142 80.533V3l67.593 38.766z"/><path fill="#F0F5F8" d="M1750.593 3v77.533L1683 41.768zm135 0v77.533L1818 41.768z"/><path fill="#EFF4F8" d="M1617.593 3v77.533L1550 41.768z"/><path fill="#EFF4F8" d="M1616 80.533V3l67.593 38.766zm134 0V3l67.593 38.766z"/><path fill="#97D0C0" d="M680.593 540v77.533L613 578.767z"/><path fill="#008D56" d="M747.593 578.767l-67.59 38.766H680V540z"/><path fill="#009D63" d="M813.593 540v77.533L746 578.766z"/><path fill="#009D5A" d="M1750.593 538v77.533L1683 576.767z"/><path fill="#008043" d="M1617.593 538v77.533L1550 576.767z"/><path fill="#008A46" d="M1617 615.533V538l67.593 38.767z"/><path fill="#96C9C4" d="M1484.593 538v77.533L1417 576.767z"/><path fill="#D5E5DC" d="M1483 615.533V538l67.593 38.767z"/><path fill="#F0F7F4" d="M1818 576.767l67.593 38.766V538z"/><path fill="#DDEBF1" d="M1751 615.533V538l67.593 38.767z"/><path fill="#DFEEE3" d="M1350.593 538.002v77.53L1283 576.768 1350.593 538z"/><path fill="#DEEFEA" d="M1215.593 538v77.533L1148 576.767z"/><path fill="#008248" d="M1081 615.533V538l67.593 38.766z"/><path fill="#88C9BF" d="M747.593 501v77.533L680 539.766z"/><path fill="#007A41" d="M813.593 539.766v.002L746 578.533V501z"/><path fill="#DAEDEA" d="M612.593 501v77.533L545 539.766z"/><path fill="#E6F4F7" d="M613 578.533V501l67.593 38.766z"/><path fill="#F1F7F1" d="M477.593 502v77.533L410 540.766z"/><path fill="#E8F4EF" d="M545.593 540.766v.002L478 579.533V502z"/><path fill="#CAE6EB" d="M344 578.533V501l67.593 38.766z"/><path fill="#D4EAE6" d="M880.593 501v77.533L813 539.766z"/><path fill="#008646" d="M1684.593 500v77.533L1617 538.766z"/><path fill="#00A072" d="M1683 577.533V500l67.593 38.766z"/><path fill="#12B7CF" d="M1550.593 500v77.533L1483 538.766z"/><path fill="#00753C" d="M1550 577.533V500l67.593 38.766z"/><path fill="#00A997" d="M1417 577.533V500l67.593 38.766z"/><path fill="#F0F7F4" d="M1818.593 500v77.533L1751 538.766z"/><path fill="#E1E9E9" d="M1818 577.533l67.593-38.77L1818 500z"/><path fill="#DFEEE3" d="M1417.593 500v77.533L1350 538.766z"/><path fill="#008441" d="M1283.593 500v77.533L1216 538.768v-.002z"/><path fill="#008E3E" d="M1283 577.533V500l67.593 38.766z"/><path fill="#00956C" d="M1148.593 500v77.533L1081 538.766z"/><path fill="#007F3C" d="M1148 577.533V500l67.593 38.768z"/><path fill="#A1D3C1" d="M1080.593 538.766v.002L1013 577.533V500z"/><path fill="#307840" d="M678.998 463.135v77.533l-67.593-38.766z"/><path fill="#00A072" d="M677.998 540.668v-77.533l67.594 38.768z"/><path fill="#008248" d="M544.812 463.135v77.533l-67.593-38.766z"/><path fill="#009D63" d="M544.812 540.668v-77.533h.002l67.59 38.768z"/><path fill="#EFF3F5" d="M411.625 462.135v77.533l-67.593-38.766z"/><path fill="#E8F4EF" d="M479.22 500.902l-67.593 38.766h-.002v-77.533z"/><path fill="#8BC9C6" d="M814.185 462.135v77.533L746.592 500.9z"/><path fill="#016E3E" d="M746.593 425v77.533L679 463.766z"/><path fill="#46B2A8" d="M813.593 463.766L746 502.533V425z"/><path fill="#91C47F" d="M612.593 425v77.533L545 463.766z"/><path fill="#036336" d="M612 502.533V425l67.593 38.766z"/><path fill="#91C47F" d="M478.593 425v77.533L411 463.766z"/><path fill="#21A160" d="M545.593 463.766L478 502.533V425z"/><path fill="#329172" d="M344.593 425v77.533L277 463.766zm536 0v77.533L813 463.766z"/><path fill="#009F56" d="M344 502.533V425l67.593 38.766zm536 0V425l67.593 38.766z"/><path fill="#009B4E" d="M1683.593 425v77.533L1616 463.766z"/><path fill="#3DB5A3" d="M1683 502.533V425l67.593 38.766z"/><path fill="#B1DDE4" d="M1550.593 425v77.533L1483 463.766z"/><path fill="#BEE2EB" d="M1550 502.533V425l67.593 38.766z"/><path fill="#00ADAB" d="M1417 502.533V425l67.593 38.766z"/><path fill="#007237" d="M1283 502.533V425l67.593 38.766z"/><path fill="#3DB5A3" d="M1148.593 425v77.533L1081 463.766zm269 0v77.533L1350 463.766z"/><path fill="#00A284" d="M1148 502.533V425l67.593 38.766z"/><path fill="#0AA539" d="M1013.593 425v77.533L946 463.766zm270 0v77.533L1216 463.766z"/><path fill="#007241" d="M1013 502.533V425l67.593 38.766z"/><path fill="#E4EFF5" d="M1817.593 425v77.533L1750 463.766z"/><path fill="#ACD8E1" d="M1818 502.533l67.593-38.768L1818 425z"/><path fill="#8BC9C6" d="M812.593 387v77.533L745 425.768z"/><path fill="#015F36" d="M679.593 387v77.533L612 425.768z"/><path fill="#008248" d="M679 464.533V387l67.593 38.768z"/><path fill="#FFF" d="M813 464.533V387l67.593 38.768z"/><path fill="#24AB6C" d="M545.593 387v77.533L478 425.768z"/><path fill="#00A072" d="M611.593 425.768l-67.59 38.765H544V387z"/><path fill="#008046" d="M411.593 387v77.533L344 425.768z"/><path fill="#21A160" d="M410 464.533V387l67.593 38.768z"/><path fill="#C7E3D3" d="M276.593 387v77.533L209 425.768z"/><path fill="#DBEBD4" d="M277 464.533V387l67.593 38.768z"/><path fill="#A7D4B9" d="M142 464.533V387l67.593 38.767z"/><path fill="#00ABA0" d="M1749.593 387v77.533L1682 425.768z"/><path fill="#80CBD8" d="M1616.593 387v77.533L1549 425.768z"/><path fill="#8DCCBD" d="M1616 464.533V387l67.593 38.768z"/><path fill="#BFE3EC" d="M1483.593 387v77.533L1416 425.768z"/><path fill="#B2DEE8" d="M1483 464.533V387l67.593 38.768z"/><path fill="#017E39" d="M1350.593 387v77.533L1283 425.768z"/><path fill="#007136" d="M1350 464.533V387l67.593 38.768z"/><path fill="#48B497" d="M1215.593 387v77.533L1148 425.768z"/><path fill="#1BA74A" d="M1215 464.533V387l67.593 38.768z"/><path fill="#016533" d="M1080.593 387v77.533L1013 425.768z"/><path fill="#109A71" d="M1080 464.533V387l67.593 38.768z"/><path fill="#9AC995" d="M946.593 387v77.533h-.002L879 425.768z"/><path fill="#68B66E" d="M946 464.533V387l67.593 38.768z"/><path fill="#F0F7F4" d="M1818 425.767l67.593 38.766V387z"/><path fill="#87C8BE" d="M1750 464.533V387l67.593 38.768z"/><path fill="#006F37" d="M746.34 349v77.533l-67.594-38.766z"/><path fill="#71BF98" d="M812.933 387.767l-67.594 38.766V349z"/><path fill="#00552F" d="M612.153 349v77.533l-67.593-38.767z"/><path fill="#46B2A8" d="M612.153 426.533V349l67.593 38.767z"/><path fill="#CFE2D5" d="M477.966 349v77.533l-67.593-38.766z"/><path fill="#A7D4B9" d="M545.56 387.767l-67.594 38.766V349z"/><path fill="#9AC995" d="M344.78 349v77.533l-67.593-38.766z"/><path fill="#9AC995" d="M343.78 426.533V349l67.593 38.767z"/><path fill="#A7D4B9" d="M209.593 349v77.533L142 387.767zm0 77.533V349l67.594 38.767z"/><path fill="#00A560" d="M1550.458 349v77.533l-67.593-38.766z"/><path fill="#8DCCBD" d="M1549.458 426.533V349l67.594 38.767z"/><path fill="#BFE3EC" d="M1417.272 349v77.533l-67.593-38.766z"/><path fill="#8DCCBD" d="M1416.272 426.533V349l67.593 38.767z"/><path fill="#008F3D" d="M1283.085 349v77.533l-67.593-38.766z"/><path fill="#027C38" d="M1283.085 426.533V349l67.594 38.767z"/><path fill="#00986C" d="M1147.9 349v77.533l-67.594-38.766z"/><path fill="#017842" d="M1147.9 426.533V349l67.592 38.767z"/><path fill="#039C3D" d="M1013.712 349v77.533l-67.593-38.766z"/><path fill="#00A284" d="M1012.712 426.533V349l67.594 38.767z"/><path fill="#B7E0E8" d="M880.526 349v77.533l-67.593-38.767z"/><path fill="#95D2D7" d="M879.526 426.533V349l67.593 38.766z"/><path fill="#E4EFF5" d="M1683.645 349v77.533l-67.593-38.766z"/><path fill="#87C8BE" d="M1682.645 426.533l67.593-38.766L1682.645 349z"/><path fill="#C6E5E6" d="M813.526 311v77.533l-67.593-38.768L813.523 311z"/><path fill="#9CD2CB" d="M813.526 388.533V311l67.593 38.77z"/><path fill="#68B7AD" d="M680.34 311v77.533l-67.594-38.768z"/><path fill="#08A439" d="M679.34 388.533V311l67.593 38.767z"/><path fill="#CFE2D5" d="M546.153 311v77.533l-67.593-38.768z"/><path fill="#EAF4E6" d="M612.746 349.766v.002l-67.593 38.765V311z"/><path fill="#D3EAE5" d="M411.966 311v77.533l-67.593-38.768z"/><path fill="#EAF4E6" d="M410.966 388.533V311l67.594 38.767z"/><path fill="#008549" d="M277.78 311v77.533l-67.593-38.768z"/><path fill="#24AB6C" d="M277.78 388.533V311l67.593 38.767z"/><path fill="#C7E3D3" d="M142.593 311v77.533L75 349.765z"/><path fill="#B7DBC1" d="M142.593 388.533V311l67.594 38.767z"/><path fill="#4DBDC7" d="M1617.645 311v77.533l-67.593-38.768z"/><path fill="#50BCBF" d="M1484.458 311v77.533l-67.593-38.768z"/><path fill="#5FBFBE" d="M1483.458 388.533V311l67.594 38.767z"/><path fill="#008E3E" d="M1351.272 311v77.533l-67.593-38.768z"/><path fill="#099F3C" d="M1350.272 388.533V311l67.593 38.767z"/><path fill="#005C37" d="M1216.085 311v77.533l-67.593-38.768z"/><path fill="#008B45" d="M1216.085 388.533V311l67.594 38.767z"/><path fill="#00A99F" d="M1080.9 311v77.533l-67.594-38.768z"/><path fill="#68C2C0" d="M1080.9 388.533V311l67.592 38.767z"/><path fill="#07A13C" d="M947.712 311v77.533l-67.593-38.766v-.002z"/><path fill="#07A13B" d="M946.712 388.533V311l67.594 38.767z"/><path fill="#F0F7F4" d="M1683.238 349.765l67.593 38.768V311z"/><path fill="#87C8BE" d="M1616.645 388.533V311l67.593 38.767z"/><path fill="#079E3D" d="M1013.593 273v77.533L946 311.766z"/><path fill="#008B3E" d="M1013 350.533V273l67.593 38.77z"/><path fill="#009656" d="M880.593 273v77.533L813 311.767z"/><path fill="#00956C" d="M880 350.533V273l67.593 38.77z"/><path fill="#3AA27C" d="M746.593 273v77.533L679 311.767z"/><path fill="#46B2A8" d="M813.593 311.768L746 350.533V273z"/><path fill="#C7E3D3" d="M612.593 273v77.533L545 311.767z"/><path fill="#C5E3DA" d="M612 350.533V273l67.593 38.77z"/><path fill="#91C47F" d="M478.593 273v77.533L411 311.767z"/><path fill="#109A71" d="M478 350.533V273l67.593 38.77z"/><path fill="#41B196" d="M344.593 273v77.533L277 311.767z"/><path fill="#059D3F" d="M344 350.533V273l67.593 38.77z"/><path fill="#00AA9A" d="M210 350.533V273l67.593 38.77z"/><path fill="#DFEDD9" d="M7 311.767l67.593 38.766V273z"/><path fill="#FFF" d="M142 311.767l67.593 38.766V273z"/><path fill="#E3EFDC" d="M75 350.533V273l67.593 38.77z"/><path fill="#00A99F" d="M1683.593 273v77.533L1616 311.767z"/><path fill="#1AB5BB" d="M1683 350.533V273l67.593 38.77z"/><path fill="#05A141" d="M1550.593 273v77.533L1483 311.767z"/><path fill="#ADD8C9" d="M1550 350.533V273l67.593 38.77z"/><path fill="#DFEEE3" d="M1417.593 273v77.533L1350 311.767z"/><path fill="#85CBC9" d="M1416 350.533V273l67.593 38.77z"/><path fill="#00A387" d="M1283.593 273v77.533L1216 311.767z"/><path fill="#018B52" d="M1283 350.533V273l67.593 38.77z"/><path fill="#00943E" d="M1147.593 273v77.533L1080 311.767z"/><path fill="#68C2C0" d="M1148 350.533V273l67.593 38.77z"/><path fill="#CEE6ED" d="M1817.593 273v77.533L1750 311.767z"/><path fill="#EFF4F7" d="M1818 350.533l67.593-38.768L1818 273z"/><path fill="#3DB5A3" d="M1080.492 234.493v77.533l-67.593-38.768z"/><path fill="#00AAA2" d="M1080.492 312.026v-77.533l67.593 38.765z"/><path fill="#008248" d="M947.306 234.493v77.533h-.002l-67.592-38.768z"/><path fill="#009D45" d="M946.306 312.026v-77.533l67.593 38.765z"/><path fill="#A1D4DA" d="M813.12 234.493v77.533l-67.594-38.768z"/><path fill="#50BCBF" d="M813.12 312.026v-77.533l67.592 38.765z"/><path fill="#3AA27C" d="M679.933 234.493v77.533l-67.594-38.768z"/><path fill="#68B7AD" d="M678.933 312.026v-77.533l67.593 38.765z"/><path fill="#3AA27C" d="M545.746 234.493v77.533l-67.593-38.768z"/><path fill="#5AAF8B" d="M544.746 312.026v-77.533l67.593 38.765z"/><path fill="#00956C" d="M411.56 234.493v77.533l-67.594-38.768z"/><path fill="#ADD8C9" d="M410.56 312.026v-77.533l67.593 38.765z"/><path fill="#34B5B4" d="M277.373 234.493v77.533l-67.593-38.768z"/><path fill="#55BCB8" d="M277.373 312.026v-77.533l67.593 38.765z"/><path fill="#C7E3D3" d="M142.187 234.493v77.533l-67.594-38.768z"/><path fill="#D8EDF1" d="M142.187 312.026v-77.533l67.593 38.765z"/><path fill="#EBF5EE" d="M7 312.026l67.593-38.77L7 234.494z"/><path fill="#CEE6ED" d="M1750.425 234.493v77.533l-67.594-38.768z"/><path fill="#A0D5E0" d="M1617.238 234.493v77.533l-67.593-38.768z"/><path fill="#88C9BF" d="M1616.238 312.026v-77.533l67.593 38.765z"/><path fill="#009F67" d="M1484.052 234.493v77.533l-67.594-38.768z"/><path fill="#059F41" d="M1483.052 312.026v-77.533l67.593 38.765z"/><path fill="#007136" d="M1350.865 234.493v77.533l-67.593-38.768z"/><path fill="#008F3D" d="M1349.865 312.026v-77.533l67.593 38.765z"/><path fill="#9FD3C7" d="M1215.68 234.493v77.533l-67.595-38.768z"/><path fill="#53BECC" d="M1215.68 312.026v-77.533l67.592 38.765z"/><path fill="#EFF4F7" d="M1818.018 273.26l67.593 38.766v-77.533zm-67.593 38.766v-77.533l67.593 38.765z"/><path fill="#00A36A" d="M1148.085 196v77.533l-67.593-38.765z"/><path fill="#50BCBF" d="M1148.085 273.533V196l67.594 38.768z"/><path fill="#42B59B" d="M1013.9 196v77.533l-67.594-38.765z"/><path fill="#26B19C" d="M1012.9 273.533V196l67.592 38.768z"/><path fill="#34B5B4" d="M880.712 196v77.533l-67.593-38.765z"/><path fill="#048F52" d="M879.712 273.533V196l67.594 38.768z"/><path fill="#98D1D4" d="M746.526 196v77.533l-67.593-38.765z"/><path fill="#68C2C0" d="M745.526 273.533V196l67.593 38.768z"/><path fill="#3AA27C" d="M612.34 196v77.533l-67.594-38.765z"/><path fill="#A2D2BE" d="M612.34 273.533V196l67.593 38.768z"/><path fill="#CEE9F0" d="M478.153 196v77.533l-67.593-38.765z"/><path fill="#B5DEE4" d="M478.153 273.533V196l67.593 38.768zM344.966 196v77.533l-67.593-38.765z"/><path fill="#C6E4E4" d="M343.966 273.533V196l67.594 38.768z"/><path fill="#4FBBB4" d="M209.78 196v77.533l-67.593-38.765z"/><path fill="#3DB7BB" d="M209.78 273.533V196l67.593 38.768z"/><path fill="#CEE5D4" d="M7 234.767l67.593 38.766V196z"/><path fill="#E3F0E7" d="M74.593 273.533V196l67.594 38.768z"/><path fill="#E4EFF5" d="M1683.83 196v77.533l-67.592-38.765z"/><path fill="#F1F3F3" d="M1682.83 273.533V196l67.595 38.768z"/><path fill="#00A470" d="M1550.645 196v77.533l-67.593-38.765z"/><path fill="#9ED1CD" d="M1549.645 273.533V196l67.593 38.768z"/><path fill="#007237" d="M1417.458 196v77.533l-67.593-38.765z"/><path fill="#009B3D" d="M1416.458 273.533V196l67.594 38.768z"/><path fill="#A9D9E2" d="M1283.272 196v77.533l-67.593-38.765z"/><path fill="#ADD9E2" d="M1283.272 273.533V196l67.593 38.768z"/><path fill="#E4EFF5" d="M1818.018 196v77.533l-67.593-38.765z"/><path fill="#EFF4F7" d="M1818.018 273.533l67.593-38.766L1818.02 196z"/><path fill="#D9EDED" d="M1215.68 157.94v77.535l-67.595-38.767z"/><path fill="#C8E6ED" d="M1215.68 235.475V157.94l67.592 38.766z"/><path fill="#00A59E" d="M1080.492 157.94v77.535l-67.593-38.767z"/><path fill="#009F5F" d="M1080.492 235.475V157.94l67.593 38.766z"/><path fill="#00956C" d="M947.306 157.94v77.535l-67.594-38.767z"/><path fill="#00AD9F" d="M946.306 235.475V157.94l67.593 38.766z"/><path fill="#00A387" d="M813.12 157.94v77.535l-67.594-38.767z"/><path fill="#68C2C0" d="M813.12 235.475V157.94l67.592 38.766z"/><path fill="#8FC8C5" d="M679.933 157.94v77.535l-67.594-38.767z"/><path fill="#68B7AD" d="M678.933 235.475V157.94l67.593 38.766z"/><path fill="#B0D5CD" d="M545.746 157.94v77.535l-67.593-38.767z"/><path fill="#A9D3D0" d="M544.746 235.475V157.94l67.593 38.766z"/><path fill="#A6D2D3" d="M411.56 157.94v77.535l-67.594-38.767z"/><path fill="#00A387" d="M410.56 235.475V157.94l67.593 38.766z"/><path fill="#3BB7BD" d="M277.373 157.94v77.535l-67.593-38.767z"/><path fill="#6CC5CF" d="M277.373 235.475V157.94l67.593 38.766z"/><path fill="#5CC0C8" d="M142.187 157.94v77.535l-67.594-38.767z"/><path fill="#92D1D7" d="M142.187 235.475V157.94l67.593 38.766z"/><path fill="#A8DAE7" d="M7 235.475l67.593-38.767L7 157.94z"/><path fill="#E7F0F5" d="M1750.425 157.94v77.535l-67.594-38.767zm-133.187 0v77.535l-67.593-38.767z"/><path fill="#CEE6ED" d="M1616.238 235.475V157.94l67.593 38.766z"/><path fill="#009445" d="M1484.052 157.94v77.535l-67.594-38.767z"/><path fill="#00A47C" d="M1483.052 235.475V157.94l67.593 38.766z"/><path fill="#D9EDED" d="M1350.865 157.94v77.535l-67.593-38.767z"/><path fill="#ADD9E2" d="M1349.865 235.475V157.94l67.593 38.766z"/><path fill="#F7FAFC" d="M1818.018 196.708l67.593 38.767V157.94z"/><path fill="#EFF4F7" d="M1750.425 235.475V157.94l67.593 38.766z"/><path fill="#D9EDED" d="M1283.272 119.18v77.534l-67.593-38.767z"/><path fill="#A7D8E4" d="M1283.272 196.714V119.18l67.593 38.767z"/><path fill="#009E81" d="M1148.085 119.18v77.534l-67.593-38.767z"/><path fill="#008C68" d="M1148.085 196.714V119.18l67.594 38.767z"/><path fill="#50BCBF" d="M1013.9 119.18v77.534l-67.594-38.767z"/><path fill="#00A78C" d="M1012.9 196.714V119.18l67.592 38.767z"/><path fill="#BDDFE2" d="M880.712 119.18v77.534l-67.593-38.767z"/><path fill="#BDE0DE" d="M879.712 196.714V119.18l67.594 38.767z"/><path fill="#75C4B6" d="M746.526 119.18v77.534l-67.593-38.767z"/><path fill="#46B2A8" d="M745.526 196.714V119.18l67.593 38.767z"/><path fill="#BDE0DE" d="M612.34 119.18v77.534l-67.594-38.767z"/><path fill="#A5D3CD" d="M612.34 196.714V119.18l67.593 38.767z"/><path fill="#50BCBF" d="M478.153 119.18v77.534l-67.593-38.767z"/><path fill="#00A387" d="M478.153 196.714V119.18l67.593 38.767z"/><path fill="#7FC8D4" d="M344.966 119.18v77.534l-67.593-38.767z"/><path fill="#A9D9DF" d="M343.966 196.714V119.18l67.594 38.767z"/><path fill="#59BEBE" d="M209.78 119.18v77.534l-67.593-38.767z"/><path fill="#5DBEBC" d="M209.78 196.714V119.18l67.593 38.767z"/><path fill="#B0DEEB" d="M7 157.947l67.593 38.767V119.18z"/><path fill="#6FC7DB" d="M74.593 196.714V119.18l67.594 38.767z"/><path fill="#EBF3F7" d="M1683.83 119.18v77.534l-67.592-38.767z"/><path fill="#E3EDEA" d="M1682.83 196.714V119.18l67.595 38.767z"/><path fill="#03AF9A" d="M1550.645 119.18v77.534l-67.593-38.767z"/><path fill="#6BBEA2" d="M1549.645 196.714V119.18l67.593 38.767z"/><path fill="#5BB359" d="M1417.458 119.18v77.534l-67.593-38.767z"/><path fill="#00A36A" d="M1416.458 196.714V119.18l67.594 38.767z"/><path fill="#E7F0F5" d="M1818.018 119.18v77.534l-67.593-38.767z"/><path fill="#F7FAFC" d="M1818.018 196.714l67.593-38.768-67.592-38.765z"/><path fill="#BEE2EB" d="M1350.593 81v77.533L1283 119.767z"/><path fill="#50BCBF" d="M1350 158.533V81l67.593 38.767z"/><path fill="#00987C" d="M1215.593 81v77.533L1148 119.767z"/><path fill="#92D0D6" d="M1216 158.533V81l67.593 38.767z"/><path fill="#AFD9E0" d="M1080.593 81v77.533L1013 119.767z"/><path fill="#ADD9E2" d="M1080 158.533V81l67.593 38.767z"/><path fill="#089E3C" d="M947.593 81v77.533L880 119.767z"/><path fill="#00B4BC" d="M946 158.533V81l67.593 38.767z"/><path fill="#65BBB3" d="M813.593 81v77.533L746 119.767z"/><path fill="#009D5E" d="M813 158.533V81l67.593 38.767z"/><path fill="#85CACF" d="M679.593 81v77.533L612 119.767z"/><path fill="#BDDFE2" d="M679 158.533V81l67.593 38.767z"/><path fill="#6CC5CF" d="M545.593 81v77.533L478 119.767z"/><path fill="#83CCDD" d="M545 158.533V81l67.593 38.767z"/><path fill="#ABDAE2" d="M411.593 81v77.533L344 119.767z"/><path fill="#ADD8C9" d="M411 158.533V81l67.593 38.767z"/><path fill="#8FC8C5" d="M277.593 81v77.533L210 119.767z"/><path fill="#57C0D0" d="M277 158.533V81l67.593 38.767z"/><path fill="#61C3D8" d="M142.593 81v77.533L75 119.767z"/><path fill="#65C2C7" d="M142 158.533V81l67.593 38.767z"/><path fill="#CFEAF2" d="M7 158.533l67.593-38.766L7 81z"/><path fill="#DDEBF1" d="M1750.593 81v77.533L1683 119.767z"/><path fill="#B1DDE4" d="M1617.593 81v77.533L1550 119.767z"/><path fill="#D7E9F1" d="M1616 158.533V81l67.593 38.767z"/><path fill="#E3EDEA" d="M1483.593 81v77.533L1416 119.767z"/><path fill="#D7E9F1" d="M1483 158.533V81l67.593 38.767z"/><path fill="#F7FAFC" d="M1818 119.77l67.593 38.763V81z"/><path fill="#EFF4F7" d="M1750 158.533V81l67.593 38.767z"/><path fill="#CEE6ED" d="M1417.593 42v77.533L1350 80.767z"/><path fill="#E8F0F3" d="M1416 119.533V42l67.593 38.766z"/><path fill="#88CABD" d="M1283.593 42v77.533L1216 80.767z"/><path fill="#A7D8E4" d="M1283 119.533V42l67.593 38.766z"/><path fill="#C6E4E4" d="M1147.593 42v77.533L1080 80.767z"/><path fill="#7ECBDB" d="M1148 119.533V42l67.593 38.766z"/><path fill="#DBEDE8" d="M1013.593 42v77.533L946 80.767z"/><path fill="#C5E3DA" d="M1013 119.533V42l67.593 38.766z"/><path fill="#00A997" d="M880.593 42v77.533L813 80.767z"/><path fill="#00B4BC" d="M880 119.533V42l67.593 38.767z"/><path fill="#CAE6EB" d="M746.593 42v77.533L679 80.767z"/><path fill="#BDE0DE" d="M813.593 80.767L746 119.533V42z"/><path fill="#AFD9E0" d="M612.593 42v77.533L545 80.767z"/><path fill="#98D3DA" d="M612 119.533V42l67.593 38.766z"/><path fill="#8FC8C5" d="M478.593 42v77.533L411 80.767z"/><path fill="#68C2C0" d="M478 119.533V42l67.593 38.766z"/><path fill="#76C8DD" d="M344.593 42v77.533L277 80.767z"/><path fill="#CEE9F0" d="M344 119.533V42l67.593 38.766z"/><path fill="#EBF5EE" d="M209.593 42v77.533L142 80.767z"/><path fill="#E6F1E1" d="M210 119.533V42l67.593 38.766z"/><path fill="#CCE8F0" d="M7 80.766l67.593 38.767V42z"/><path fill="#98D4E4" d="M75 119.533V42l67.593 38.766z"/><path fill="#E7F0F5" d="M1683.593 42v77.533L1616 80.767z"/><path fill="#EBF2F6" d="M1683 119.533V42l67.593 38.766z"/><path fill="#BEE2EB" d="M1550.593 42v77.533L1483 80.767z"/><path fill="#E8F0F3" d="M1550 119.533V42l67.593 38.766z"/><path fill="#F7FAFC" d="M1817.593 42v77.533L1750 80.767zm.407 77.533l67.593-38.772L1818 42z"/><path fill="#D0E3DF" d="M1750.593 614v77.533L1683 652.766z"/><path fill="#89C5A2" d="M1617.593 614v77.533h-.002L1550 652.768v-.002z"/><path fill="#A1CEBE" d="M1616 691.533V614l67.593 38.766z"/><path fill="#E1E9E9" d="M1484.593 614v77.533L1417 652.766z"/><path fill="#DFEEE3" d="M1483 691.533V614l67.593 38.768z"/><path fill="#ABCEC2" d="M1350.593 614v77.533L1283 652.768v-.002z"/><path fill="#E3EDEA" d="M1350 691.533V614l67.593 38.766z"/><path fill="#F6F9FA" d="M1215.593 614v77.533L1148 652.766z"/><path fill="#E8F4EF" d="M1216 691.533V614l67.593 38.768z"/><path fill="#73B7AA" d="M1081.593 614v77.533L1014 652.768z"/><path fill="#71B5AA" d="M1081 691.533V614l67.593 38.766z"/><path fill="#F9FAFB" d="M1751 691.533V614l67.593 38.766z"/><path fill="#D1EAEC" d="M813.593 617v77.533L746 655.767z"/><path fill="#00A072" d="M680.593 617v77.533L613 655.768z"/><path fill="#25A996" d="M679 694.533V617l67.593 38.768z"/><path fill="#3CB183" d="M1683.593 576v77.533L1616 614.768z"/><path fill="#A7D4B9" d="M1683 653.533V576l67.593 38.768z"/><path fill="#DFEEE3" d="M1550.593 576v77.533L1483 614.767z"/><path fill="#009C56" d="M1550 653.533V576l67.593 38.768z"/><path fill="#BDDFE2" d="M1417.593 576v77.533L1350 614.768z"/><path fill="#80CBD8" d="M1417 653.533V576l67.593 38.768z"/><path fill="#ECF6F7" d="M1283.593 576v77.533L1216 614.767z"/><path fill="#F0F3F6" d="M1284 653.533V576l67.593 38.768z"/><path fill="#2EA37D" d="M1148.593 576v77.533L1081 614.768z"/><path fill="#EFF2F4" d="M1148 653.533V576l67.593 38.768z"/><path fill="#D0E2DE" d="M1818.593 576v77.533L1751 614.768z"/><path fill="#EFF4F7" d="M1818 653.533l67.593-38.765L1818 576z"/><path fill="#009D51" d="M1750.593 462v77.533L1683 500.767z"/><path fill="#026836" d="M1617.593 462v77.533L1550 500.767z"/><path fill="#009841" d="M1617 539.533V462l67.593 38.77z"/><path fill="#4EBCC3" d="M1484.593 462v77.533L1417 500.767z"/><path fill="#00ADAB" d="M1483 539.533V462l67.593 38.77z"/><path fill="#F0F7F4" d="M1818 500.77l67.593 38.763V462z"/><path fill="#ACD8E1" d="M1751 539.533V462l67.593 38.77z"/><path fill="#00973B" d="M1215.593 462v77.533L1148 500.767z"/><path fill="#00542D" d="M1080.593 462v77.533L1013 500.766z"/><path fill="#68C2C0" d="M1081 539.533V462l67.593 38.77z"/><path fill="#00A04F" d="M947 539.533V462l67.593 38.77z"/><path fill="#B1D8C1" d="M612.866 655.765v-77.533h.002l67.59 38.765z"/></g></svg>